<svg width="20" height="20" viewBox="0 0 20 20" fill="none" xmlns="http://www.w3.org/2000/svg">
<path d="M12.4183 3.48976C11.9422 3.40182 11.505 3.70561 11.4144 4.17029C11.3238 4.63497 11.6285 5.08866 12.0916 5.1796C13.4859 5.45141 14.5624 6.53067 14.8353 7.92971V7.93071C14.913 8.33343 15.2675 8.62623 15.6759 8.62623C15.7306 8.62623 15.7854 8.62124 15.8412 8.61124C16.3043 8.51831 16.609 8.06562 16.5184 7.59994C16.1111 5.51037 14.5027 3.89648 12.4183 3.48976Z" fill="#999999"/>
<path d="M12.3558 0.00792976C12.1328 -0.0240483 11.9087 0.0419064 11.7304 0.183809C11.5472 0.32771 11.4326 0.535567 11.4078 0.768408C11.355 1.23908 11.6946 1.66479 12.1646 1.71776C15.4063 2.07951 17.9259 4.60477 18.2904 7.85654C18.3392 8.29224 18.7047 8.62101 19.1409 8.62101C19.1738 8.62101 19.2057 8.61902 19.2385 8.61502C19.4666 8.59004 19.6698 8.47711 19.8132 8.29724C19.9556 8.11736 20.0203 7.89351 19.9944 7.66467C19.5403 3.60746 16.4002 0.45862 12.3558 0.00792976Z" fill="#999999"/>
<path fill-rule="evenodd" clip-rule="evenodd" d="M9.03174 10.9724C13.0208 14.9604 13.9258 10.3467 16.4656 12.8848C18.9143 15.3328 20.3216 15.8232 17.2192 18.9247C16.8306 19.237 14.3616 22.9943 5.6846 14.3197C-2.99348 5.644 0.761585 3.17244 1.07397 2.78395C4.18387 -0.326154 4.66586 1.08938 7.11449 3.53733C9.65436 6.0765 5.04266 6.98441 9.03174 10.9724Z" fill="#999999"/>
</svg>
