<svg width="35" height="35" viewBox="0 0 30 30" fill="none" xmlns="http://www.w3.org/2000/svg">
<path d="M15 28.125C11.519 28.125 8.18064 26.7422 5.71922 24.2808C3.25781 21.8194 1.875 18.481 1.875 15C1.875 11.519 3.25781 8.18064 5.71922 5.71922C8.18064 3.25781 11.519 1.875 15 1.875C18.481 1.875 21.8194 3.25781 24.2808 5.71922C26.7422 8.18064 28.125 11.519 28.125 15C28.125 18.481 26.7422 21.8194 24.2808 24.2808C21.8194 26.7422 18.481 28.125 15 28.125ZM15 30C18.9782 30 22.7936 28.4196 25.6066 25.6066C28.4196 22.7936 30 18.9782 30 15C30 11.0218 28.4196 7.20644 25.6066 4.3934C22.7936 1.58035 18.9782 0 15 0C11.0218 0 7.20644 1.58035 4.3934 4.3934C1.58035 7.20644 0 11.0218 0 15C0 18.9782 1.58035 22.7936 4.3934 25.6066C7.20644 28.4196 11.0218 30 15 30Z" fill="#97A2A2"/>
<path d="M8.71195 8.71146C8.79903 8.62415 8.90249 8.55489 9.01639 8.50762C9.13028 8.46036 9.25239 8.43604 9.3757 8.43604C9.49901 8.43604 9.62111 8.46036 9.73501 8.50762C9.84891 8.55489 9.95236 8.62415 10.0394 8.71146L15.0007 13.6746L19.9619 8.71146C20.0491 8.6243 20.1526 8.55515 20.2665 8.50798C20.3804 8.46081 20.5024 8.43653 20.6257 8.43653C20.749 8.43653 20.871 8.46081 20.9849 8.50798C21.0988 8.55515 21.2023 8.6243 21.2894 8.71146C21.3766 8.79863 21.4458 8.9021 21.4929 9.01599C21.5401 9.12988 21.5644 9.25194 21.5644 9.37521C21.5644 9.49848 21.5401 9.62054 21.4929 9.73443C21.4458 9.84832 21.3766 9.9518 21.2894 10.039L16.3263 15.0002L21.2894 19.9615C21.3766 20.0486 21.4458 20.1521 21.4929 20.266C21.5401 20.3799 21.5644 20.5019 21.5644 20.6252C21.5644 20.7485 21.5401 20.8705 21.4929 20.9844C21.4458 21.0983 21.3766 21.2018 21.2894 21.289C21.2023 21.3761 21.0988 21.4453 20.9849 21.4924C20.871 21.5396 20.749 21.5639 20.6257 21.5639C20.5024 21.5639 20.3804 21.5396 20.2665 21.4924C20.1526 21.4453 20.0491 21.3761 19.9619 21.289L15.0007 16.3258L10.0394 21.289C9.95228 21.3761 9.8488 21.4453 9.73492 21.4924C9.62103 21.5396 9.49897 21.5639 9.3757 21.5639C9.25243 21.5639 9.13037 21.5396 9.01648 21.4924C8.90259 21.4453 8.79911 21.3761 8.71195 21.289C8.62478 21.2018 8.55564 21.0983 8.50847 20.9844C8.46129 20.8705 8.43701 20.7485 8.43701 20.6252C8.43701 20.5019 8.46129 20.3799 8.50847 20.266C8.55564 20.1521 8.62478 20.0486 8.71195 19.9615L13.6751 15.0002L8.71195 10.039C8.62464 9.95187 8.55537 9.84842 8.50811 9.73452C8.46085 9.62063 8.43652 9.49852 8.43652 9.37521C8.43652 9.2519 8.46085 9.12979 8.50811 9.0159C8.55537 8.902 8.62464 8.79855 8.71195 8.71146Z" fill="#97A2A2"/>
</svg>
