<svg width="42" height="42" viewBox="0 0 41 42" fill="none" xmlns="http://www.w3.org/2000/svg">
<rect x="0.5" y="0.5" width="40" height="41" rx="14.5" stroke="#EDEDF2"/>
<path d="M25.8799 22.6964C27.4379 22.6964 28.6998 23.9673 28.6998 25.5353C28.6998 27.1024 27.4379 28.3733 25.8799 28.3733C24.3229 28.3733 23.0601 27.1024 23.0601 25.5353C23.0601 23.9673 24.3229 22.6964 25.8799 22.6964ZM18.9281 24.3246C19.6105 24.3246 20.1645 24.8821 20.1645 25.5689C20.1645 26.2548 19.6105 26.8133 18.9281 26.8133H13.5362C12.8538 26.8133 12.2998 26.2548 12.2998 25.5689C12.2998 24.8821 12.8538 24.3246 13.5362 24.3246H18.9281ZM15.1197 13.4399C16.6777 13.4399 17.9396 14.7108 17.9396 16.2779C17.9396 17.8459 16.6777 19.1168 15.1197 19.1168C13.5626 19.1168 12.2998 17.8459 12.2998 16.2779C12.2998 14.7108 13.5626 13.4399 15.1197 13.4399ZM27.4643 15.0345C28.1459 15.0345 28.6998 15.592 28.6998 16.2779C28.6998 16.9647 28.1459 17.5222 27.4643 17.5222H22.0724C21.39 17.5222 20.836 16.9647 20.836 16.2779C20.836 15.592 21.39 15.0345 22.0724 15.0345H27.4643Z" fill="#7C7C8C"/>
</svg>
