<svg width="22" height="23" viewBox="0 0 22 23" fill="none" xmlns="http://www.w3.org/2000/svg">
<path d="M21.805 9.42757C21.9359 10.1994 22.0011 10.9815 22 11.7649C22 15.2636 20.7796 18.2219 18.6559 20.2243H18.6587C16.8016 21.9823 14.2487 23 11.2216 23C8.24546 23 5.3912 21.7884 3.28674 19.6318C1.18227 17.4752 0 14.5503 0 11.5004C0 8.45049 1.18227 5.52552 3.28674 3.36892C5.3912 1.21232 8.24546 0.000758812 11.2216 0.000758812C14.0073 -0.032674 16.6976 1.0398 18.7289 2.99353L15.5251 6.27668C14.367 5.14537 12.8214 4.52585 11.2216 4.55173C8.29418 4.55173 5.80719 6.57567 4.92068 9.30108C4.45064 10.7292 4.45064 12.2759 4.92068 13.704H4.92489C5.8156 16.4251 8.29839 18.449 11.2258 18.449C12.7379 18.449 14.0368 18.0523 15.044 17.3508H15.0398C15.6246 16.9538 16.1248 16.4395 16.5103 15.8389C16.8958 15.2383 17.1585 14.5639 17.2827 13.8564H11.2216V9.42901H21.805V9.42757Z" fill="white"/>
</svg>
