<svg width="18" height="24" viewBox="0 0 18 24" fill="none" xmlns="http://www.w3.org/2000/svg">
<path d="M17 15.4197V9.23574C17 8.80551 16.9112 8.3798 16.7388 7.98469C16.5664 7.58957 16.3142 7.23338 15.9976 6.93791L10.0992 1.43198C9.80213 1.15457 9.40882 1 9 1C8.59118 1 8.19787 1.15457 7.9008 1.43198L2.0024 6.93791C1.68578 7.23338 1.43356 7.58957 1.2612 7.98469C1.08883 8.3798 0.999954 8.80551 1 9.23574V15.4197C1 15.8388 1.16857 16.2408 1.46863 16.5371C1.76869 16.8335 2.17565 17 2.6 17H15.4C15.8243 17 16.2313 16.8335 16.5314 16.5371C16.8314 16.2408 17 15.8388 17 15.4197Z" stroke="#D9D9D9" stroke-width="2" stroke-linecap="round" stroke-linejoin="round"/>
<circle cx="9" cy="22" r="2" fill="#D9D9D9"/>
</svg>
