<svg width="40" height="40" viewBox="0 0 40 40" fill="none" xmlns="http://www.w3.org/2000/svg">
<circle cx="20" cy="20" r="19.75" fill="white"/>
<circle cx="20" cy="20" r="19.75" stroke="#44CFCB" stroke-width="0.5"/>
<circle cx="20" cy="20" r="19.75" stroke="black" stroke-opacity="0.2" stroke-width="0.5"/>
<path d="M26.6296 14.4579C26.2465 14.0746 25.7917 13.7706 25.2911 13.5632C24.7905 13.3558 24.254 13.249 23.7121 13.249C23.1702 13.249 22.6337 13.3558 22.1331 13.5632C21.6325 13.7706 21.1777 14.0746 20.7946 14.4579L19.9996 15.2529L19.2046 14.4579C18.4308 13.6841 17.3814 13.2494 16.2871 13.2494C15.1928 13.2494 14.1434 13.6841 13.3696 14.4579C12.5958 15.2317 12.1611 16.2811 12.1611 17.3754C12.1611 18.4697 12.5958 19.5191 13.3696 20.2929L14.1646 21.0879L19.9996 26.9229L25.8346 21.0879L26.6296 20.2929C27.0128 19.9098 27.3169 19.455 27.5243 18.9544C27.7317 18.4538 27.8385 17.9173 27.8385 17.3754C27.8385 16.8335 27.7317 16.297 27.5243 15.7964C27.3169 15.2958 27.0128 14.841 26.6296 14.4579V14.4579Z" stroke="#44CFCB" stroke-width="2" stroke-linecap="round" stroke-linejoin="round"/>
</svg>
