<svg width="19" height="19" viewBox="0 0 19 19" fill="none" xmlns="http://www.w3.org/2000/svg">
<circle cx="9.5" cy="9.5" r="9" stroke="#8A899C"/>
<path fill-rule="evenodd" clip-rule="evenodd" d="M5.92979 5.25C5.85104 5.25 5.78083 5.30458 5.75375 5.38667L5.27292 6.84729C5.25773 6.89348 5.25 6.94179 5.25 6.99042V7.57146C5.25 7.9 5.48979 8.16667 5.78562 8.16667C6.08146 8.16667 6.32146 7.9 6.32146 7.57146C6.32146 7.90021 6.56125 8.16667 6.85708 8.16667C7.15292 8.16667 7.39292 7.9 7.39292 7.57146C7.39292 7.90021 7.63271 8.16667 7.92854 8.16667C8.22438 8.16667 8.46396 7.90042 8.46438 7.57188C8.46438 7.90042 8.70417 8.16667 9 8.16667C9.29583 8.16667 9.53562 7.9 9.53562 7.57146C9.53562 7.90021 9.77562 8.16667 10.0715 8.16667C10.3673 8.16667 10.6069 7.90042 10.6071 7.57188C10.6073 7.90042 10.8471 8.16667 11.1429 8.16667C11.4387 8.16667 11.6785 7.9 11.6785 7.57146C11.6785 7.90021 11.9183 8.16667 12.2144 8.16667C12.5102 8.16667 12.75 7.9 12.75 7.57146V6.99042C12.75 6.94179 12.7423 6.89348 12.7271 6.84729L12.2463 5.38688C12.2192 5.30458 12.149 5.25 12.0702 5.25H5.92979Z" fill="#8A899C"/>
<path fill-rule="evenodd" clip-rule="evenodd" d="M6.08301 8.42308V10.0418H5.56217C5.53455 10.0418 5.50805 10.0528 5.48852 10.0723C5.46898 10.0919 5.45801 10.1184 5.45801 10.146V10.3543C5.45801 10.382 5.46898 10.4085 5.48852 10.428C5.50805 10.4475 5.53455 10.4585 5.56217 10.4585H12.4372C12.4648 10.4585 12.4913 10.4475 12.5108 10.428C12.5304 10.4085 12.5413 10.382 12.5413 10.3543V10.146C12.5413 10.1184 12.5304 10.0919 12.5108 10.0723C12.4913 10.0528 12.4648 10.0418 12.4372 10.0418H11.9163V8.42308C11.8291 8.38832 11.7486 8.33878 11.6782 8.27662C11.6242 8.32426 11.5642 8.3646 11.4997 8.39662V10.0418H6.49967V8.39662C6.43517 8.3646 6.37514 8.32426 6.32113 8.27662C6.25113 8.33808 6.17113 8.38808 6.08301 8.42308ZM11.4997 8.01537C11.5174 7.99766 11.534 7.9787 11.5497 7.9585H11.4997V8.01537ZM11.8068 7.9585C11.8383 7.9993 11.8751 8.03567 11.9163 8.06662V7.9585H11.8068ZM6.08301 8.06662C6.12444 8.03592 6.16133 7.99952 6.19259 7.9585H6.08301V8.06662ZM6.44967 7.9585H6.49967V8.01537C6.48178 7.99753 6.46508 7.97853 6.44967 7.9585ZM5.77051 10.8752C5.74288 10.8752 5.71639 10.8861 5.69685 10.9057C5.67732 10.9252 5.66634 10.9517 5.66634 10.9793V12.5418C5.66634 12.5971 5.68829 12.6501 5.72736 12.6891C5.76643 12.7282 5.81942 12.7502 5.87467 12.7502H12.1247C12.1799 12.7502 12.2329 12.7282 12.272 12.6891C12.3111 12.6501 12.333 12.5971 12.333 12.5418V10.9793C12.333 10.9517 12.322 10.9252 12.3025 10.9057C12.283 10.8861 12.2565 10.8752 12.2288 10.8752H5.77051Z" fill="#8A899C"/>
<path d="M7.64616 9.4165H7.02116C6.96363 9.4165 6.91699 9.46314 6.91699 9.52067V9.93734C6.91699 9.99487 6.96363 10.0415 7.02116 10.0415H7.64616C7.70369 10.0415 7.75033 9.99487 7.75033 9.93734V9.52067C7.75033 9.46314 7.70369 9.4165 7.64616 9.4165Z" fill="#8A899C"/>
<path d="M8.06217 9.625H7.43717C7.37964 9.625 7.33301 9.67164 7.33301 9.72917V9.9375C7.33301 9.99503 7.37964 10.0417 7.43717 10.0417H8.06217C8.1197 10.0417 8.16634 9.99503 8.16634 9.9375V9.72917C8.16634 9.67164 8.1197 9.625 8.06217 9.625Z" fill="#8A899C"/>
<path d="M8.6875 10.0415C8.86009 10.0415 9 9.90159 9 9.729C9 9.55641 8.86009 9.4165 8.6875 9.4165C8.51491 9.4165 8.375 9.55641 8.375 9.729C8.375 9.90159 8.51491 10.0415 8.6875 10.0415Z" fill="#8A899C"/>
</svg>
