<svg width="19" height="19" viewBox="0 0 19 19" fill="none" xmlns="http://www.w3.org/2000/svg">
<g clip-path="url(#clip0_112_368)">
<path d="M10 5C10.0625 5 10.1225 5.0375 10.16 5.1C10.5938 5.82344 11.1363 6.27031 11.8288 6.84219C11.8937 6.89531 11.96 6.95156 12.0287 7.00781C12.39 7.30781 12.6 7.81563 12.6 8.35313C12.6 8.8 12.4588 9.20469 12.2275 9.5H7.7725C7.5425 9.20312 7.4 8.79844 7.4 8.35313C7.4 7.81563 7.60875 7.30781 7.97125 7.00781C8.03875 6.95156 8.10625 6.89688 8.17125 6.84219C8.86375 6.27031 9.40625 5.82344 9.84 5.1C9.8775 5.0375 9.9375 5 10 5V5ZM8.6 13V11.875C8.6 11.6672 8.46625 11.5 8.3 11.5C8.13375 11.5 8 11.6672 8 11.875V13H7.4C7.17875 13 7 12.7766 7 12.5V10.5C7 10.2234 7.17875 10 7.4 10H12.6C12.8212 10 13 10.2234 13 10.5V12.5C13 12.7766 12.8212 13 12.6 13H12V11.875C12 11.6672 11.8663 11.5 11.7 11.5C11.5338 11.5 11.4 11.6672 11.4 11.875V13H10.6V12.0938C10.6 11.7969 10.495 11.5156 10.3125 11.325L10 11L9.6875 11.325C9.505 11.5156 9.4 11.7969 9.4 12.0938V13H8.6ZM5.88 5.08125C5.91454 5.04855 5.95668 5.03086 6 5.03086C6.04332 5.03086 6.08546 5.04855 6.12 5.08125L6.32 5.26875C6.7475 5.67031 7 6.3 7 6.96875V7H5V6.96875C5 6.3 5.2525 5.67031 5.68 5.26875L5.88 5.08125ZM5 7.5H7V9.63438C6.76125 9.80781 6.6 10.1297 6.6 10.5V12.5C6.6 12.65 6.62625 12.7906 6.6725 12.9187C6.59 12.9719 6.4975 13 6.4 13H5.6C5.26875 13 5 12.6641 5 12.25V7.5Z" fill="#8A899C"/>
</g>
<circle cx="9.5" cy="9.5" r="9" stroke="#8A899C"/>
<defs>
<clipPath id="clip0_112_368">
<rect width="8" height="8" fill="white" transform="translate(5 5)"/>
</clipPath>
</defs>
</svg>
