<svg width="19" height="19" viewBox="0 0 19 19" fill="none" xmlns="http://www.w3.org/2000/svg">
<path d="M7.29301 14.6191V6.09914H10.869C11.253 6.09914 11.605 6.17914 11.925 6.33914C12.245 6.49914 12.525 6.71114 12.765 6.97514C13.005 7.23914 13.189 7.53514 13.317 7.86314C13.445 8.19114 13.509 8.52714 13.509 8.87114C13.509 9.34314 13.401 9.79514 13.185 10.2271C12.977 10.6511 12.677 10.9951 12.285 11.2591C11.901 11.5231 11.453 11.6551 10.941 11.6551H8.63701V14.6191H7.29301ZM8.63701 10.4671H10.857C11.113 10.4671 11.337 10.3991 11.529 10.2631C11.721 10.1191 11.869 9.92714 11.973 9.68714C12.085 9.44714 12.141 9.17514 12.141 8.87114C12.141 8.55914 12.077 8.28314 11.949 8.04314C11.821 7.80314 11.653 7.61914 11.445 7.49114C11.245 7.35514 11.025 7.28714 10.785 7.28714H8.63701V10.4671Z" fill="#8A899C"/>
<circle cx="9.5" cy="9.5" r="9" stroke="#8A899C"/>
</svg>
