<svg width="19" height="19" viewBox="0 0 19 19" fill="none" xmlns="http://www.w3.org/2000/svg">
<circle cx="9.5" cy="9.5" r="9" stroke="#8A899C"/>
<path d="M6.91699 14.1668V10.3543C6.56283 10.2571 6.26602 10.0627 6.02658 9.771C5.78685 9.47933 5.66699 9.13905 5.66699 8.75016V5.8335H6.50033V8.75016H6.91699V5.8335H7.75033V8.75016H8.16699V5.8335H9.00033V8.75016C9.00033 9.13905 8.88046 9.47933 8.64074 9.771C8.4013 10.0627 8.10449 10.2571 7.75033 10.3543V14.1668H6.91699ZM11.0837 14.1668V10.8335H9.83366V7.91683C9.83366 7.34044 10.0369 6.84919 10.4432 6.44308C10.8494 6.03669 11.3406 5.8335 11.917 5.8335V14.1668H11.0837Z" fill="#8A899C"/>
</svg>
