<svg width="16" height="14" viewBox="0 0 16 14" fill="none" xmlns="http://www.w3.org/2000/svg">
<path d="M7.35961 1.42725C7.6883 0.572469 8.89765 0.572471 9.22635 1.42725L10.4378 4.57776C10.5864 4.96399 10.9574 5.21885 11.3712 5.21885H14.8827C15.8916 5.21885 16.2657 6.54324 15.4059 7.07107L12.871 8.62727C12.4602 8.87941 12.2878 9.3886 12.4608 9.83841L13.494 12.5253C13.8371 13.4177 12.8523 14.2366 12.0374 13.7364L8.81616 11.7589C8.4952 11.5618 8.09076 11.5618 7.7698 11.7589L4.54855 13.7364C3.7337 14.2366 2.74882 13.4177 3.092 12.5253L4.1252 9.83841C4.29817 9.3886 4.12571 8.87941 3.715 8.62728L1.18006 7.07107C0.32026 6.54324 0.694347 5.21885 1.70324 5.21885H5.21475C5.62854 5.21885 5.9996 4.96399 6.14812 4.57776L7.35961 1.42725Z" fill="#FFB865"/>
</svg>
