<svg width="19" height="19" viewBox="0 0 19 19" fill="none" xmlns="http://www.w3.org/2000/svg">
<circle cx="9.5" cy="9.5" r="9" stroke="#8A899C"/>
<path d="M13.258 5.3125H11.5053C11.3542 5.3125 11.2319 5.44563 11.2319 5.54422V5.82578C11.2319 5.90812 11.3177 6.05047 11.4338 6.09563V9.52375C11.3958 9.50858 11.3553 9.50053 11.3144 9.5H4.84203C4.63609 9.5 4.46875 9.68625 4.46875 9.91516C4.46875 10.018 4.50391 10.1111 4.55984 10.1839C4.5006 10.2609 4.46857 10.3554 4.46875 10.4525C4.46875 10.6816 4.63609 10.8678 4.84203 10.8678H5.14453C5.23359 11.4653 5.57609 12.0025 6.09094 12.4091C6.13406 12.575 6.1575 12.7483 6.1575 12.9272C6.1575 13.4894 5.92813 13.9059 5.55859 14.2495H5.34313C5.21875 14.2495 5.11766 14.3475 5.11766 14.4684C5.11766 14.5894 5.21875 14.6875 5.34313 14.6875H11.6552C11.7797 14.6875 11.8806 14.5895 11.8806 14.4686C11.8806 14.3477 11.7797 14.2497 11.6552 14.2497H11.44C11.0705 13.9061 10.8409 13.4895 10.8409 12.9273C10.8409 12.8456 10.8464 12.765 10.8559 12.6855C12.0014 12.6606 12.9241 11.7466 12.9506 10.6116H13.1039C13.2286 10.6116 13.3292 10.4581 13.3292 10.3767V6.09563C13.4455 6.05047 13.5313 5.90828 13.5313 5.82578V5.54422C13.5313 5.44563 13.4091 5.3125 13.258 5.3125ZM4.76438 10.4525C4.76438 10.3827 4.80547 10.3305 4.84203 10.3305H11.0102C11.035 10.4289 11.0939 10.5155 11.1763 10.5748H4.84203C4.80531 10.5748 4.76438 10.5225 4.76438 10.4525ZM8.49938 12.9011C6.93453 12.9011 5.63875 12.0134 5.44031 10.8677H11.3142C11.3447 10.8677 11.3741 10.8623 11.4023 10.8547H11.5608C11.3702 12.007 10.07 12.9011 8.49938 12.9011ZM11.8613 10.3184C11.8683 10.2878 11.8719 10.2564 11.872 10.225C11.872 10.0983 11.8166 9.98562 11.7294 9.90609V6.11078H13.0339V10.3184H11.8613Z" fill="#8A899C"/>
<path d="M12.3813 6.91229C12.673 6.91229 12.9093 6.67791 12.9093 6.38916H11.8535C11.8535 6.67791 12.0898 6.91229 12.3813 6.91229Z" fill="#8A899C"/>
</svg>
