<svg width="17" height="19" viewBox="0 0 17 19" fill="none" xmlns="http://www.w3.org/2000/svg">
<path d="M8.48107 18.1C6.42599 18.1012 4.44046 17.3557 2.89401 16.0022C1.34755 14.6488 0.345505 12.7796 0.0743504 10.7424C-0.196806 8.70533 0.281403 6.63908 1.41998 4.92822C2.55855 3.21737 4.27993 1.97845 6.26377 1.44203C6.21544 1.27371 6.20688 1.09645 6.23879 0.924253C6.27069 0.752055 6.34217 0.589627 6.4476 0.449787C6.55303 0.309948 6.68951 0.196524 6.84628 0.118466C7.00305 0.0404082 7.17582 -0.000147139 7.35095 4.01122e-07H9.61119C9.78632 -0.000147139 9.95909 0.0404082 10.1159 0.118466C10.2726 0.196524 10.4091 0.309948 10.5145 0.449787C10.62 0.589627 10.6915 0.752055 10.7234 0.924253C10.7553 1.09645 10.7467 1.27371 10.6984 1.44203C12.6822 1.97845 14.4036 3.21737 15.5422 4.92822C16.6807 6.63908 17.1589 8.70533 16.8878 10.7424C16.6166 12.7796 15.6146 14.6488 14.0681 16.0022C12.5217 17.3557 10.5362 18.1012 8.48107 18.1ZM1.13529 9.62411C1.13529 11.5723 1.90921 13.4408 3.28682 14.8184C4.66442 16.196 6.53285 16.9699 8.48107 16.9699C10.4293 16.9699 12.2977 16.196 13.6753 14.8184C15.0529 13.4408 15.8269 11.5723 15.8269 9.62411C15.8269 7.67588 15.0529 5.80746 13.6753 4.42985C12.2977 3.05225 10.4293 2.27832 8.48107 2.27832C6.53285 2.27832 4.66442 3.05225 3.28682 4.42985C1.90921 5.80746 1.13529 7.67588 1.13529 9.62411Z" fill="#44CFCB"/>
<path d="M9.67887 8.4082L4.08477 5.20996L7.28301 10.8041L12.876 14.0023L9.68 8.4082H9.67887Z" fill="#44CFCB"/>
</svg>
