<svg width="16" height="20" viewBox="0 0 16 20" fill="none" xmlns="http://www.w3.org/2000/svg">
<path d="M8 13.6739C10.1572 13.6739 12.0862 13.8512 13.4601 14.3378C14.1437 14.5799 14.6548 14.8866 14.9915 15.2541C15.3178 15.6103 15.5 16.0437 15.5 16.599C15.5 17.1535 15.3171 17.5849 14.9897 17.9388C14.6517 18.3042 14.1386 18.6084 13.4531 18.8478C12.0756 19.3289 10.1461 19.5 8 19.5C5.84334 19.5 3.9143 19.3228 2.5403 18.8362C1.85663 18.5941 1.34539 18.2873 1.00864 17.9198C0.682206 17.5636 0.5 17.1302 0.5 16.575C0.5 16.0205 0.682942 15.589 1.0103 15.2351C1.34831 14.8697 1.86139 14.5655 2.54688 14.3261C3.92436 13.845 5.85395 13.6739 8 13.6739ZM8 0.5C10.6632 0.5 12.794 2.6304 12.794 5.29105C12.794 7.95183 10.6631 10.0831 8 10.0831C5.33787 10.0831 3.20601 7.95177 3.20601 5.29105C3.20601 2.63046 5.33775 0.5 8 0.5Z" stroke="#D9D9D9"/>
</svg>
