<svg width="41" height="42" viewBox="0 0 41 42" fill="none" xmlns="http://www.w3.org/2000/svg">
<rect x="0.5" y="0.5" width="40" height="41" rx="14.5" fill="white" stroke="#EDEDF2"/>
<path d="M25.8799 22.6959C27.4379 22.6959 28.6998 23.9668 28.6998 25.5348C28.6998 27.1019 27.4379 28.3728 25.8799 28.3728C24.3229 28.3728 23.0601 27.1019 23.0601 25.5348C23.0601 23.9668 24.3229 22.6959 25.8799 22.6959ZM18.9281 24.3241C19.6105 24.3241 20.1645 24.8816 20.1645 25.5684C20.1645 26.2543 19.6105 26.8128 18.9281 26.8128H13.5362C12.8538 26.8128 12.2998 26.2543 12.2998 25.5684C12.2998 24.8816 12.8538 24.3241 13.5362 24.3241H18.9281ZM15.1197 13.4395C16.6777 13.4395 17.9396 14.7104 17.9396 16.2774C17.9396 17.8454 16.6777 19.1164 15.1197 19.1164C13.5626 19.1164 12.2998 17.8454 12.2998 16.2774C12.2998 14.7104 13.5626 13.4395 15.1197 13.4395ZM27.4643 15.034C28.1459 15.034 28.6998 15.5916 28.6998 16.2774C28.6998 16.9642 28.1459 17.5218 27.4643 17.5218H22.0724C21.39 17.5218 20.836 16.9642 20.836 16.2774C20.836 15.5916 21.39 15.034 22.0724 15.034H27.4643Z" fill="#7C7C8C"/>
</svg>
