<svg width="16" height="14" viewBox="0 0 16 14" fill="none" xmlns="http://www.w3.org/2000/svg">
<path d="M6.71801 1.42725C7.0467 0.572469 8.25605 0.572471 8.58475 1.42725L9.79624 4.57776C9.94476 4.96399 10.3158 5.21885 10.7296 5.21885H14.2411C15.25 5.21885 15.6241 6.54324 14.7643 7.07107L12.2293 8.62727C11.8186 8.87941 11.6462 9.3886 11.8192 9.83841L12.8524 12.5253C13.1955 13.4177 12.2107 14.2366 11.3958 13.7364L8.17456 11.7589C7.8536 11.5618 7.44915 11.5618 7.1282 11.7589L3.90695 13.7364C3.09209 14.2366 2.10722 13.4177 2.4504 12.5253L3.48359 9.83841C3.65656 9.3886 3.48411 8.87941 3.0734 8.62728L0.538455 7.07107C-0.321342 6.54324 0.0527458 5.21885 1.06163 5.21885H4.57314C4.98694 5.21885 5.358 4.96399 5.50651 4.57776L6.71801 1.42725Z" fill="#FFB865"/>
</svg>
