<svg width="25" height="16" viewBox="0 0 25 16" fill="none" xmlns="http://www.w3.org/2000/svg">
<path d="M6.64941 2.79834V4.15959H8.16191V2.79834H6.64941ZM17.2369 2.79834V4.15959H18.7494V2.79834H17.2369ZM6.64941 5.52084V6.88209H8.16191V5.52084H6.64941ZM17.2369 5.52084V6.88209H18.7494V5.52084H17.2369ZM6.64941 8.24334V9.60459H8.16191V8.24334H6.64941ZM17.2369 8.24334V9.60459H18.7494V8.24334H17.2369ZM6.64941 10.9658V12.3271H8.16191V10.9658H6.64941ZM17.2369 10.9658V12.3271H18.7494V10.9658H17.2369Z" fill="#D9D9D9"/>
<path d="M2.86836 0C2.26665 0 1.68958 0.239028 1.26411 0.664502C0.838638 1.08997 0.599609 1.66704 0.599609 2.26875L0.599609 4.5375C0.599609 4.73807 0.679285 4.93043 0.82111 5.07225C0.962934 5.21407 1.15529 5.29375 1.35586 5.29375C1.95757 5.29375 2.53463 5.53278 2.96011 5.95825C3.38558 6.38372 3.62461 6.96079 3.62461 7.5625C3.62461 8.16421 3.38558 8.74128 2.96011 9.16675C2.53463 9.59222 1.95757 9.83125 1.35586 9.83125C1.15529 9.83125 0.962934 9.91093 0.82111 10.0528C0.679285 10.1946 0.599609 10.3869 0.599609 10.5875L0.599609 12.8563C0.599609 13.458 0.838638 14.035 1.26411 14.4605C1.68958 14.886 2.26665 15.125 2.86836 15.125H22.5309C23.1326 15.125 23.7096 14.886 24.1351 14.4605C24.5606 14.035 24.7996 13.458 24.7996 12.8563V10.5875C24.7996 10.3869 24.7199 10.1946 24.5781 10.0528C24.4363 9.91093 24.2439 9.83125 24.0434 9.83125C23.4416 9.83125 22.8646 9.59222 22.4391 9.16675C22.0136 8.74128 21.7746 8.16421 21.7746 7.5625C21.7746 6.96079 22.0136 6.38372 22.4391 5.95825C22.8646 5.53278 23.4416 5.29375 24.0434 5.29375C24.2439 5.29375 24.4363 5.21407 24.5781 5.07225C24.7199 4.93043 24.7996 4.73807 24.7996 4.5375V2.26875C24.7996 1.66704 24.5606 1.08997 24.1351 0.664502C23.7096 0.239028 23.1326 0 22.5309 0H2.86836ZM2.11211 2.26875C2.11211 2.06818 2.19179 1.87583 2.33361 1.734C2.47543 1.59218 2.66779 1.5125 2.86836 1.5125H22.5309C22.7314 1.5125 22.9238 1.59218 23.0656 1.734C23.2074 1.87583 23.2871 2.06818 23.2871 2.26875V3.85688C22.4323 4.03045 21.6638 4.49419 21.1118 5.16953C20.5599 5.84487 20.2583 6.69028 20.2583 7.5625C20.2583 8.43473 20.5599 9.28013 21.1118 9.95547C21.6638 10.6308 22.4323 11.0946 23.2871 11.2681V12.8563C23.2871 13.0568 23.2074 13.2492 23.0656 13.391C22.9238 13.5328 22.7314 13.6125 22.5309 13.6125H2.86836C2.66779 13.6125 2.47543 13.5328 2.33361 13.391C2.19179 13.2492 2.11211 13.0568 2.11211 12.8563V11.2681C2.96689 11.0946 3.73538 10.6308 4.28737 9.95547C4.83936 9.28013 5.1409 8.43473 5.1409 7.5625C5.1409 6.69028 4.83936 5.84487 4.28737 5.16953C3.73538 4.49419 2.96689 4.03045 2.11211 3.85688V2.26875Z" fill="#D9D9D9"/>
</svg>
