<svg width="266" height="226" viewBox="0 0 266 226" fill="none" xmlns="http://www.w3.org/2000/svg">
<path fill-rule="evenodd" clip-rule="evenodd" d="M41.8041 137.32C36.2662 140.778 39.2647 144.145 41.4931 144.66C44.1491 145.275 193.202 144.845 210.248 144.845C216.842 144.845 225.866 146.605 225.469 140.882C225.309 138.587 224.037 138.207 222.332 137.349C222.339 119.903 222.333 102.457 222.333 85.0118C222.333 80.4274 223.16 61.7647 221.646 59.1599C219.755 55.9078 209.54 50.8276 204.907 49.4904C189.053 44.9145 174.077 49.9498 165.115 58.3041C161.897 61.3037 140.904 82.9204 138.511 84.4655C132.609 79.3467 123.831 69.9558 117.434 63.7431C115.095 61.4712 113.074 59.0997 110.311 56.9122C99.6494 48.4717 82.5993 44.4193 67.3484 51.211C55.5938 56.4455 45.275 67.1564 42.6344 82.3319C40.4398 94.9449 43.3197 124.139 41.8041 137.32ZM164.812 137.418L176.104 137.491C177.301 134.516 176.518 68.6016 176.525 59.3986C172.815 60.7466 165.004 67.4296 164.663 70.1333L164.812 137.418ZM145.404 89.9936L145.41 137.493L157.341 137.361L157.332 76.6985C155.726 77.6166 149.884 83.7718 147.78 85.8103C146.311 87.2336 145.404 87.3563 145.404 89.9936ZM126.175 137.334L138.082 137.495L138.048 95.8886C135.932 96.9863 130.58 102.935 127.989 105.383C126.178 107.094 126.127 107.012 126.147 110.389C126.199 119.369 126.153 128.352 126.175 137.334ZM107.098 125.364L106.985 137.491L118.854 137.497L118.853 115.194C116.481 116.185 115.111 118.408 113.186 120.464C111.573 122.186 109.176 123.603 107.098 125.364ZM87.8283 132.124L87.7457 137.373L99.62 137.484L99.622 129.257L87.8283 132.124ZM68.4922 137.496L80.4255 137.496L80.395 131.804C75.5419 131.462 72.7724 130.347 68.5041 129.184L68.4922 137.496ZM49.2825 137.445L61.17 137.459L61.1698 125.299C60.3752 124.614 59.1695 123.92 58.1326 123.038C51.722 117.587 53.7644 118.426 49.4729 114.087L49.2825 137.445ZM183.976 56.2641L183.882 137.369L195.752 137.484L195.751 55.31C191.451 54.8788 187.783 55.361 183.976 56.2641ZM203.075 137.32L214.813 137.477L215.001 63.0922C212.685 60.719 207.071 57.5925 203.219 56.7487L203.075 137.32ZM67.7813 58.87C67.5348 67.1355 67.7458 75.7154 67.7458 84.0154C67.7458 88.633 68.9572 106.795 66.3813 108.811C64.9315 109.945 62.7701 109.805 61.4739 108.489C59.6261 106.612 60.4136 94.0619 60.4136 89.9936C60.4136 81.3611 60.44 72.7246 60.4068 64.0927C51.7658 69.2585 46.4034 85.8545 49.5856 98.4642C55.5729 122.191 86.321 135.551 108.591 113.642C112.717 109.582 116.506 105.826 120.593 101.725C122.476 99.8357 131.597 91.5941 132.405 89.3321C130.123 87.659 127.759 84.195 125.416 83.0783C125.405 87.0277 125.825 92.6007 120.643 91.151C115.11 89.603 120.277 77.7979 117.078 74.3144L106.302 64.0666C105.796 73.7399 106.164 92.3779 106.234 103.454C106.257 107.269 105.419 112.981 100.406 109.917C97.6878 108.256 98.8625 89.7066 98.8625 85.0118C98.8625 76.3897 99.1428 67.2876 98.8118 58.7244C95.2713 57.2012 91.4074 55.534 86.9961 55.4775L86.9919 107.43C86.9919 111.823 88.0661 122.088 81.3622 118.538C78.7046 117.079 79.6689 109.649 79.6689 104.441L79.6623 55.3624C74.8531 55.8396 71.5183 57.0491 67.7813 58.87Z" fill="white"/>
<path fill-rule="evenodd" clip-rule="evenodd" d="M167.888 41.4887C166.436 51.8871 174.672 44.0995 187.756 42.579C203.104 40.7952 210.541 47.8855 212.862 43.2692C216.731 35.5761 196.106 34.8433 191.816 34.9424C182.916 35.1482 174.035 37.2851 167.888 41.4887V41.4887Z" fill="white"/>
<path fill-rule="evenodd" clip-rule="evenodd" d="M158.86 46.9766C146.525 54.4598 152.195 61.4675 156.856 58.5523L163.371 52.5615C166.013 49.4829 162.716 44.6375 158.86 46.9766V46.9766Z" fill="white"/>
<path d="M50.8106 28.8194C54.1292 28.8194 56.8194 26.1292 56.8194 22.8106C56.8194 19.492 54.1292 16.8018 50.8106 16.8018C47.492 16.8018 44.8018 19.492 44.8018 22.8106C44.8018 26.1292 47.492 28.8194 50.8106 28.8194Z" stroke="white" stroke-width="4" stroke-miterlimit="22.9256"/>
<path d="M50.811 0H50.8109C49.6231 0 48.6602 0.305498 48.6602 0.682349V11.3354C48.6602 11.7123 49.6231 12.0178 50.8109 12.0178H50.811C51.9988 12.0178 52.9617 11.7123 52.9617 11.3354V0.682349C52.9617 0.305498 51.9988 0 50.811 0Z" fill="white"/>
<path d="M50.811 33.6025H50.8109C49.6231 33.6025 48.6602 33.908 48.6602 34.2849V44.938C48.6602 45.3148 49.6231 45.6203 50.8109 45.6203H50.811C51.9988 45.6203 52.9617 45.3148 52.9617 44.938V34.2849C52.9617 33.908 51.9988 33.6025 50.811 33.6025Z" fill="white"/>
<path d="M28.6823 20.6594C28.3055 20.6594 28 21.6223 28 22.8102C28 23.998 28.3055 24.9609 28.6823 24.9609L39.3355 24.9609C39.7123 24.9609 40.0178 23.998 40.0178 22.8102C40.0178 21.6223 39.7123 20.6594 39.3355 20.6594L28.6823 20.6594Z" fill="white"/>
<path d="M62.2848 20.6594C61.908 20.6594 61.6025 21.6223 61.6025 22.8102C61.6025 23.998 61.908 24.9609 62.2848 24.9609L72.938 24.9609C73.3148 24.9609 73.6203 23.998 73.6203 22.8102C73.6203 21.6223 73.3148 20.6594 72.938 20.6594L62.2848 20.6594Z" fill="white"/>
<path d="M36.6852 5.64298C36.4188 5.37653 35.5219 5.84141 34.6819 6.68134C33.842 7.52126 33.3771 8.41815 33.6436 8.68461L41.1765 16.2175C41.443 16.484 42.3399 16.0191 43.1798 15.1792C44.0197 14.3393 44.4846 13.4424 44.2181 13.1759L36.6852 5.64298Z" fill="white"/>
<path d="M60.446 29.4037C60.1795 29.1373 59.2826 29.6022 58.4427 30.4421C57.6028 31.282 57.1379 32.1789 57.4043 32.4453L64.9373 39.9783C65.2037 40.2447 66.1006 39.7798 66.9405 38.9399C67.7805 38.1 68.2453 37.2031 67.9789 36.9367L60.446 29.4037Z" fill="white"/>
<path d="M33.643 36.9369C33.3765 37.2033 33.8414 38.1002 34.6813 38.9401C35.5213 39.78 36.4182 40.2449 36.6846 39.9785L44.2175 32.4455C44.484 32.1791 44.0191 31.2822 43.1792 30.4423C42.3393 29.6024 41.4424 29.1375 41.1759 29.4039L33.643 36.9369Z" fill="white"/>
<path d="M57.4037 13.1751C57.1373 13.4416 57.6022 14.3385 58.4421 15.1784C59.282 16.0183 60.1789 16.4832 60.4453 16.2168L67.9783 8.68383C68.2447 8.41737 67.7798 7.52048 66.9399 6.68056C66.1 5.84064 65.2031 5.37575 64.9367 5.6422L57.4037 13.1751Z" fill="white"/>
<path d="M0 182.25L0.55 176.5H24.3L23.75 182.25L15.05 181.5L14.85 198L15.45 211H8.45L9.05 198.85L8.85 181.55L0 182.25ZM50.5664 198.35C50.5664 196.05 50.3664 194.517 49.9664 193.75C49.5664 192.983 48.6331 192.6 47.1664 192.6C45.6997 192.6 44.0331 193.183 42.1664 194.35V198L42.7164 209.75L35.9664 211L36.5664 198.85L35.9664 173.55L42.8164 172.3L42.1664 185.25V191.1C42.6664 190.433 43.2331 189.783 43.8664 189.15C44.4997 188.517 45.4831 187.8 46.8164 187C48.1497 186.2 49.5664 185.8 51.0664 185.8C52.5997 185.8 53.8831 186.4 54.9164 187.6C55.9497 188.767 56.4664 190.367 56.4664 192.4L56.1664 198L56.7164 210L49.9664 211.25L50.5664 198.35ZM75.9859 211C74.0193 211 72.4026 210.383 71.1359 209.15C69.9026 207.883 69.2859 206.2 69.2859 204.1C69.2859 201.967 70.2526 200.133 72.1859 198.6C74.1193 197.033 76.4693 196.25 79.2359 196.25H82.6359V195.4C82.6359 193.767 82.3026 192.65 81.6359 192.05C80.9693 191.45 79.7193 191.15 77.8859 191.15C77.1193 191.15 76.2026 191.317 75.1359 191.65C74.1026 191.95 72.9359 192.433 71.6359 193.1L70.1859 189.15C71.6193 188.15 73.3526 187.25 75.3859 186.45C77.4526 185.65 79.1526 185.25 80.4859 185.25C85.7193 185.25 88.3359 187.783 88.3359 192.85V202.65C88.3359 204.517 88.9193 206.6 90.0859 208.9L84.7859 211.15C83.9526 209.55 83.3359 208.117 82.9359 206.85C81.1026 209.617 78.7859 211 75.9859 211ZM78.0859 205.9C79.4193 205.9 80.9359 205.217 82.6359 203.85V200.5C80.8693 200.1 79.4359 199.9 78.3359 199.9C76.2359 199.9 75.1859 200.833 75.1859 202.7C75.1859 203.667 75.4526 204.45 75.9859 205.05C76.5193 205.617 77.2193 205.9 78.0859 205.9ZM117.673 198.35C117.673 196.05 117.473 194.517 117.073 193.75C116.673 192.983 115.74 192.6 114.273 192.6C112.807 192.6 111.14 193.183 109.273 194.35V198L109.823 209.75L103.123 211L103.723 198.85C103.59 194.383 103.223 190.383 102.623 186.85L108.673 185.55C108.907 187.483 109.073 189.367 109.173 191.2C109.673 190.533 110.24 189.883 110.873 189.25C111.507 188.583 112.507 187.85 113.873 187.05C115.24 186.217 116.623 185.8 118.023 185.8C119.423 185.8 120.607 186.25 121.573 187.15C122.54 188.05 123.157 189.283 123.423 190.85C126.19 187.483 128.99 185.8 131.823 185.8C133.59 185.8 134.99 186.4 136.023 187.6C137.057 188.767 137.573 190.367 137.573 192.4L137.273 198L137.823 210L131.073 211.25L131.673 198.35C131.673 196.05 131.473 194.517 131.073 193.75C130.673 192.983 129.757 192.6 128.323 192.6C126.89 192.6 125.273 193.15 123.473 194.25L123.273 198L123.823 210L117.073 211.25L117.673 198.35ZM157.06 211C155.093 211 153.477 210.383 152.21 209.15C150.977 207.883 150.36 206.2 150.36 204.1C150.36 201.967 151.327 200.133 153.26 198.6C155.193 197.033 157.543 196.25 160.31 196.25H163.71V195.4C163.71 193.767 163.377 192.65 162.71 192.05C162.043 191.45 160.793 191.15 158.96 191.15C158.193 191.15 157.277 191.317 156.21 191.65C155.177 191.95 154.01 192.433 152.71 193.1L151.26 189.15C152.693 188.15 154.427 187.25 156.46 186.45C158.527 185.65 160.227 185.25 161.56 185.25C166.793 185.25 169.41 187.783 169.41 192.85V202.65C169.41 204.517 169.993 206.6 171.16 208.9L165.86 211.15C165.027 209.55 164.41 208.117 164.01 206.85C162.177 209.617 159.86 211 157.06 211ZM159.16 205.9C160.493 205.9 162.01 205.217 163.71 203.85V200.5C161.943 200.1 160.51 199.9 159.41 199.9C157.31 199.9 156.26 200.833 156.26 202.7C156.26 203.667 156.527 204.45 157.06 205.05C157.593 205.617 158.293 205.9 159.16 205.9ZM191.798 206.35C193.531 206.35 194.398 205.583 194.398 204.05C194.398 203.517 194.014 203.017 193.248 202.55C192.514 202.083 191.598 201.617 190.498 201.15C189.431 200.683 188.348 200.167 187.248 199.6C186.181 199 185.264 198.183 184.498 197.15C183.764 196.117 183.398 194.933 183.398 193.6C183.398 191.367 184.381 189.417 186.348 187.75C188.314 186.083 190.581 185.25 193.148 185.25C194.348 185.25 195.514 185.4 196.648 185.7C197.814 185.967 198.931 186.4 199.998 187L196.648 193.1C196.414 192.9 196.114 192.65 195.748 192.35C195.381 192.05 194.681 191.667 193.648 191.2C192.648 190.7 191.748 190.45 190.948 190.45C190.181 190.45 189.581 190.633 189.148 191C188.748 191.333 188.548 191.817 188.548 192.45C188.548 193.05 189.114 193.667 190.248 194.3C191.414 194.9 192.681 195.467 194.048 196C195.414 196.5 196.664 197.35 197.798 198.55C198.964 199.717 199.548 201.117 199.548 202.75C199.548 205.083 198.581 207.133 196.648 208.9C194.748 210.667 192.548 211.55 190.048 211.55C188.448 211.55 186.948 211.2 185.548 210.5C184.181 209.8 183.198 209.1 182.598 208.4L181.698 207.35L185.648 202.75C185.848 203.017 186.131 203.35 186.498 203.75C186.864 204.15 187.581 204.683 188.648 205.35C189.748 206.017 190.798 206.35 191.798 206.35ZM213.375 220.65L218.525 209.1L214.825 199L209.775 186.85L216.425 185.6L219.625 196.25L221.275 201.3H221.925L223.125 197.65L226.725 185.55L232.875 186.3L224.025 209.55L219.825 222L213.375 220.65ZM249.668 211C247.701 211 246.084 210.383 244.818 209.15C243.584 207.883 242.968 206.2 242.968 204.1C242.968 201.967 243.934 200.133 245.868 198.6C247.801 197.033 250.151 196.25 252.918 196.25H256.318V195.4C256.318 193.767 255.984 192.65 255.318 192.05C254.651 191.45 253.401 191.15 251.568 191.15C250.801 191.15 249.884 191.317 248.818 191.65C247.784 191.95 246.618 192.433 245.318 193.1L243.868 189.15C245.301 188.15 247.034 187.25 249.068 186.45C251.134 185.65 252.834 185.25 254.168 185.25C259.401 185.25 262.018 187.783 262.018 192.85V202.65C262.018 204.517 262.601 206.6 263.768 208.9L258.468 211.15C257.634 209.55 257.018 208.117 256.618 206.85C254.784 209.617 252.468 211 249.668 211ZM251.768 205.9C253.101 205.9 254.618 205.217 256.318 203.85V200.5C254.551 200.1 253.118 199.9 252.018 199.9C249.918 199.9 248.868 200.833 248.868 202.7C248.868 203.667 249.134 204.45 249.668 205.05C250.201 205.617 250.901 205.9 251.768 205.9Z" fill="white"/>
</svg>
