<svg width="89" height="66" viewBox="0 0 89 66" fill="none" xmlns="http://www.w3.org/2000/svg">
<path fill-rule="evenodd" clip-rule="evenodd" d="M6.2098 61.7694C3.71875 63.3251 5.06756 64.8393 6.06992 65.0713C7.26463 65.3477 74.3118 65.1544 81.9792 65.1544C84.9452 65.1544 89.0048 65.9461 88.826 63.3718C88.7543 62.3391 88.1817 62.1686 87.4148 61.7824C87.4179 53.935 87.4155 46.0875 87.4155 38.2401C87.4155 36.178 87.7872 27.7831 87.1062 26.6114C86.2559 25.1485 81.6608 22.8634 79.5769 22.2619C72.4453 20.2035 65.7087 22.4685 61.6776 26.2264C60.2301 27.5758 50.7871 37.2994 49.7104 37.9944C47.0555 35.6919 43.107 31.4676 40.2295 28.673C39.1774 27.6511 38.2685 26.5843 37.0257 25.6004C32.2298 21.8036 24.5603 19.9808 17.7002 23.0358C12.4127 25.3904 7.77109 30.2084 6.5833 37.0346C5.59612 42.7082 6.89157 55.8403 6.2098 61.7694ZM61.5415 61.8136L66.6205 61.8461C67.1589 60.5081 66.8068 30.8585 66.81 26.7188C65.141 27.3252 61.6278 30.3313 61.4743 31.5475L61.5415 61.8136ZM52.8111 40.481L52.814 61.8474L58.1808 61.7876L58.1766 34.5006C57.454 34.9136 54.8261 37.6824 53.8798 38.5993C53.219 39.2395 52.8111 39.2947 52.8111 40.481ZM44.1614 61.7755L49.5175 61.8479L49.5024 43.1327C48.5503 43.6265 46.1431 46.3026 44.9776 47.4037C44.163 48.1733 44.1402 48.136 44.149 49.6553C44.1724 53.6949 44.1517 57.7356 44.1614 61.7755ZM35.5802 56.3913L35.5294 61.8463L40.8686 61.849L40.8682 51.8167C39.8009 52.2625 39.1846 53.2624 38.3188 54.1872C37.5933 54.962 36.515 55.5991 35.5802 56.3913ZM26.9124 59.432L26.8753 61.7934L32.2166 61.8431L32.2175 58.1425L26.9124 59.432ZM18.2147 61.8486L23.5825 61.8488L23.5688 59.288C21.3858 59.1342 20.14 58.6329 18.22 58.1098L18.2147 61.8486ZM9.57375 61.8258L14.921 61.8318L14.9209 56.362C14.5635 56.054 14.0211 55.7417 13.5547 55.345C10.6711 52.8929 11.5898 53.2706 9.65938 51.3187L9.57375 61.8258ZM70.1618 25.3088L70.1196 61.7915L75.4585 61.8434L75.4582 24.8797C73.5239 24.6857 71.8742 24.9026 70.1618 25.3088ZM78.7528 61.7694L84.0328 61.8402L84.1171 28.3802C83.0755 27.3127 80.5504 25.9064 78.8176 25.5268L78.7528 61.7694ZM17.8949 26.481C17.784 30.199 17.8789 34.0584 17.8789 37.7919C17.8789 39.869 18.4238 48.0388 17.2652 48.9454C16.613 49.4556 15.6407 49.3927 15.0577 48.8005C14.2265 47.9563 14.5808 42.311 14.5808 40.481C14.5808 36.598 14.5926 32.7131 14.5777 28.8303C10.6908 31.154 8.27868 38.6192 9.71007 44.2913C12.4033 54.964 26.2344 60.9735 36.2519 51.1184C38.108 49.2924 39.8121 47.603 41.6506 45.7581C42.4976 44.9082 46.6006 41.201 46.9641 40.1835C45.9373 39.4309 44.8741 37.8727 43.8199 37.3704C43.8152 39.1469 44.0042 41.6538 41.6734 41.0017C39.1843 40.3053 41.5084 34.9952 40.0693 33.4282L35.2224 28.8185C34.9946 33.1698 35.1604 41.5535 35.1915 46.5356C35.2022 48.252 34.825 50.8214 32.57 49.4431C31.3474 48.6958 31.8759 40.352 31.8759 38.2401C31.8759 34.3617 32.002 30.2674 31.8531 26.4155C30.2605 25.7303 28.5224 24.9804 26.5381 24.955L26.5362 48.3241C26.5362 50.3004 27.0194 54.918 24.0039 53.321C22.8084 52.6646 23.2422 49.3224 23.2422 46.9796L23.2392 24.9032C21.0759 25.1179 19.5759 25.6619 17.8949 26.481Z" fill="#44CFCB"/>
<path fill-rule="evenodd" clip-rule="evenodd" d="M62.9239 18.6621C62.2709 23.3394 65.9758 19.8364 71.861 19.1525C78.765 18.3501 82.1101 21.5394 83.1544 19.4629C84.8948 16.0024 75.6169 15.6728 73.6874 15.7174C69.6841 15.81 65.6891 16.7712 62.9239 18.6621Z" fill="#44CFCB"/>
<path fill-rule="evenodd" clip-rule="evenodd" d="M58.8636 21.1312C53.3147 24.4973 55.8655 27.6495 57.9621 26.3381L60.8925 23.6434C62.0809 22.2585 60.598 20.079 58.8636 21.1312Z" fill="#44CFCB"/>
<path d="M10.2605 12.9634C11.7533 12.9634 12.9634 11.7533 12.9634 10.2605C12.9634 8.76774 11.7533 7.55762 10.2605 7.55762C8.76774 7.55762 7.55762 8.76774 7.55762 10.2605C7.55762 11.7533 8.76774 12.9634 10.2605 12.9634Z" stroke="white" stroke-width="9.44882" stroke-miterlimit="22.9256"/>
<path d="M10.2605 0H10.2604C9.7261 0 9.29297 0.137419 9.29297 0.306935V5.09891C9.29297 5.26843 9.7261 5.40585 10.2604 5.40585H10.2605C10.7948 5.40585 11.2279 5.26843 11.2279 5.09891V0.306935C11.2279 0.137419 10.7948 0 10.2605 0Z" fill="#44CFCB"/>
<path d="M10.2605 15.1152H10.2604C9.7261 15.1152 9.29297 15.2527 9.29297 15.4222V20.2141C9.29297 20.3837 9.7261 20.5211 10.2604 20.5211H10.2605C10.7948 20.5211 11.2279 20.3837 11.2279 20.2141V15.4222C11.2279 15.2527 10.7948 15.1152 10.2605 15.1152Z" fill="#44CFCB"/>
<path d="M0.306912 9.29263C0.137409 9.29263 0 9.72577 0 10.2601C0 10.7944 0.137409 11.2275 0.306912 11.2275L5.09892 11.2275C5.26843 11.2275 5.40584 10.7944 5.40584 10.2601C5.40584 9.72577 5.26843 9.29263 5.09892 9.29263L0.306912 9.29263Z" fill="#44CFCB"/>
<path d="M15.4221 9.29263C15.2526 9.29263 15.1152 9.72577 15.1152 10.2601C15.1152 10.7944 15.2526 11.2275 15.4221 11.2275L20.2142 11.2275C20.3837 11.2275 20.5211 10.7944 20.5211 10.2601C20.5211 9.72577 20.3837 9.29263 20.2142 9.29263L15.4221 9.29263Z" fill="#44CFCB"/>
<path d="M3.90649 2.53829C3.78664 2.41843 3.3832 2.62755 3.00538 3.00536C2.62757 3.38317 2.41845 3.78662 2.53831 3.90647L5.92678 7.29494C6.04663 7.4148 6.45007 7.20568 6.82789 6.82787C7.2057 6.45005 7.41482 6.04661 7.29496 5.92675L3.90649 2.53829Z" fill="#44CFCB"/>
<path d="M14.595 13.2268C14.4751 13.1069 14.0717 13.316 13.6939 13.6938C13.316 14.0717 13.1069 14.4751 13.2268 14.5949L16.6153 17.9834C16.7351 18.1033 17.1386 17.8942 17.5164 17.5163C17.8942 17.1385 18.1033 16.7351 17.9834 16.6152L14.595 13.2268Z" fill="#44CFCB"/>
<path d="M2.53829 16.615C2.41843 16.7348 2.62755 17.1383 3.00536 17.5161C3.38317 17.8939 3.78662 18.103 3.90647 17.9832L7.29494 14.5947C7.4148 14.4749 7.20568 14.0714 6.82787 13.6936C6.45005 13.3158 6.04661 13.1067 5.92675 13.2265L2.53829 16.615Z" fill="#44CFCB"/>
<path d="M13.2268 5.92651C13.1069 6.04637 13.316 6.44981 13.6938 6.82763C14.0717 7.20544 14.4751 7.41456 14.5949 7.2947L17.9834 3.90623C18.1033 3.78638 17.8942 3.38293 17.5163 3.00512C17.1385 2.62731 16.7351 2.41819 16.6152 2.53805L13.2268 5.92651Z" fill="#44CFCB"/>
</svg>
